<?xml version="1.0" encoding="UTF-8" standalone="no"?>
<!DOCTYPE svg PUBLIC "-//W3C//DTD SVG 1.1//EN" "http://www.w3.org/Graphics/SVG/1.1/DTD/svg11.dtd">
<svg width="100%" height="100%" viewBox="0 0 38 38" version="1.1" xmlns="http://www.w3.org/2000/svg" xmlns:xlink="http://www.w3.org/1999/xlink" xml:space="preserve" xmlns:serif="http://www.serif.com/" style="fill-rule:evenodd;clip-rule:evenodd;stroke-linejoin:round;stroke-miterlimit:2;">
    <g id="g42" transform="matrix(1,0,0,1,-100,1)">
        <g id="g6">
        </g>
        <g id="g40">
            <g id="g28">
            </g>
            <g id="g38">
                <g id="g36">
                    <g id="g34">
                    </g>
                </g>
            </g>
        </g>
    </g>
    <g id="Mesa-de-trabajo1" serif:id="Mesa de trabajo1" transform="matrix(0.844444,0,0,0.844444,-84.4444,0.844444)">
        <rect x="100" y="-1" width="45" height="45" style="fill:none;"/>
        <g transform="matrix(1,0,0,1,2.96053,-0.591838)">
            <g id="path4840" transform="matrix(0.536604,0,0,0.536604,102.368,4.92052)">
                <circle cx="32" cy="32" r="32" style="fill:white;"/>
            </g>
            <g id="g61" serif:id="g6" transform="matrix(0.536604,0,0,0.536604,102.368,4.92052)">
                <rect id="rect2" x="0" y="0" width="64" height="64" style="fill:none;"/>
                <path id="path4" d="M54.516,52.963C49.19,58.685 41.696,62.395 33.268,62.742C16.289,63.443 1.955,50.246 1.256,33.27C0.556,16.291 13.752,1.96 30.73,1.259C39.022,0.918 46.678,3.896 52.428,9.005L54.239,9.005C48.163,3.131 39.79,-0.348 30.68,0.028C13.02,0.758 -0.703,15.664 0.027,33.32C0.755,50.976 15.661,64.702 33.319,63.972C42.489,63.594 50.592,59.387 56.167,52.962L54.516,52.962L54.516,52.963Z" style="fill:rgb(201,77,63);fill-rule:nonzero;"/>
            </g>
            <g id="polygon8" transform="matrix(0.536604,0,0,0.536604,102.368,4.92052)">
                <path d="M28.059,31.078L19.684,26.894L33.764,20.164L53.639,27.358L51.732,31.078L52.518,31.078L54.623,26.97L33.727,19.407L18.092,26.88L26.505,31.078L28.059,31.078Z" style="fill:rgb(240,218,211);fill-rule:nonzero;"/>
            </g>
            <g id="path10" transform="matrix(0.536604,0,0,0.536604,102.368,4.92052)">
                <path d="M19.302,47.885C13.603,43.969 9.93,37.883 9.93,31.056C9.93,19.27 20.862,9.682 34.299,9.682C47.737,9.682 58.668,19.27 58.668,31.056C58.668,31.063 58.666,31.071 58.666,31.078L59.016,31.078C59.016,31.07 59.018,31.062 59.018,31.056C59.018,19.077 47.93,9.332 34.299,9.332C20.67,9.332 9.581,19.077 9.581,31.056C9.581,38.028 13.343,44.24 19.171,48.217L19.302,47.885Z" style="fill:rgb(186,193,207);fill-rule:nonzero;"/>
            </g>
            <g id="polygon12" transform="matrix(0.536604,0,0,0.536604,102.368,4.92052)">
                <path d="M23.147,38.234L19.291,26.983L33.461,13.245L57.646,26.217L55.686,31.078L56.439,31.078L58.529,25.896L33.342,12.388L18.486,26.79L22.749,39.232L23.147,38.234Z" style="fill:rgb(186,193,207);fill-rule:nonzero;"/>
            </g>
            <g id="path14" transform="matrix(0.536604,0,0,0.536604,102.368,4.92052)">
                <path d="M21.312,42.84L21.446,42.503C18.067,39.585 15.965,35.533 15.965,31.056C15.965,22.191 24.19,14.979 34.299,14.979C44.41,14.979 52.637,22.191 52.637,31.056C52.637,31.064 52.635,31.071 52.635,31.078L52.985,31.078C52.985,31.07 52.987,31.063 52.987,31.056C52.987,21.998 44.604,14.629 34.299,14.629C23.997,14.629 15.615,21.998 15.615,31.056C15.615,35.678 17.805,39.853 21.312,42.84Z" style="fill:rgb(186,193,207);fill-rule:nonzero;"/>
            </g>
            <g id="path16" transform="matrix(0.536604,0,0,0.536604,102.368,4.92052)">
                <path d="M24.013,36.06C23.069,34.577 22.527,32.872 22.527,31.056C22.527,25.368 27.808,20.742 34.299,20.742C40.791,20.742 46.072,25.369 46.072,31.056C46.072,31.064 46.07,31.071 46.07,31.078L46.42,31.078C46.42,31.07 46.422,31.063 46.422,31.056C46.422,25.176 40.984,20.392 34.299,20.392C27.615,20.392 22.177,25.176 22.177,31.056C22.177,33.024 22.797,34.864 23.859,36.448L24.013,36.06Z" style="fill:rgb(186,193,207);fill-rule:nonzero;"/>
            </g>
            <g id="path18" transform="matrix(0.536604,0,0,0.536604,102.368,4.92052)">
                <path d="M28.305,31.078C28.305,31.07 28.304,31.063 28.304,31.056C28.304,28.165 30.993,25.814 34.299,25.814C37.606,25.814 40.295,28.166 40.295,31.056L40.295,31.078L40.645,31.078L40.645,31.056C40.645,27.973 37.799,25.464 34.299,25.464C30.801,25.464 27.955,27.972 27.955,31.056C27.955,31.064 27.956,31.071 27.956,31.078L28.305,31.078Z" style="fill:rgb(186,193,207);fill-rule:nonzero;"/>
            </g>
            <g id="g401" serif:id="g40" transform="matrix(0.536604,0,0,0.536604,102.368,4.92052)">
                <g id="g281" serif:id="g28">
                    <path id="path20" d="M16.659,44.448L16.659,45.2L6.416,45.2L6.416,31.069L16.553,31.069L16.553,31.821L7.345,31.821L7.345,37.481L16.003,37.481L16.003,38.233L7.345,38.233L7.345,44.448L16.659,44.448Z" style="fill:rgb(30,36,56);fill-rule:nonzero;"/>
                    <path id="path22" d="M35.354,43.32C35.354,43.914 35.354,44.547 36.071,44.547C36.219,44.547 36.409,44.527 36.663,44.487L36.663,45.121C36.43,45.16 36.219,45.2 36.008,45.2C34.74,45.2 34.551,44.547 34.551,43.716L34.551,43.182L34.508,43.182C34.002,44.389 32.545,45.438 30.475,45.438C28.426,45.438 26.842,44.706 26.842,42.569C26.842,40.194 29.038,39.699 30.833,39.56C34.423,39.323 34.572,39.105 34.572,37.443C34.572,36.988 34.021,35.444 31.551,35.444C29.609,35.444 28.321,36.394 28.216,38.155L27.413,38.155C27.518,35.919 28.997,34.791 31.551,34.791C33.453,34.791 35.354,35.346 35.354,37.443L35.354,43.32ZM34.551,39.421C33.916,40.094 32.186,40.015 30.623,40.213C28.723,40.411 27.645,41.044 27.645,42.568C27.645,43.795 28.595,44.784 30.496,44.784C34.149,44.784 34.551,41.855 34.551,41.321L34.551,39.421Z" style="fill:rgb(30,36,56);fill-rule:nonzero;"/>
                    <rect id="path24" x="38.037" y="31.069" width="0.803" height="14.131" style="fill:rgb(30,36,56);fill-rule:nonzero;"/>
                    <path id="path26" d="M57.871,31.069L63.826,45.2L62.834,45.2L60.932,40.668L53.711,40.668L51.789,45.2L50.795,45.2L56.858,31.069L57.871,31.069ZM60.637,39.916L57.407,31.921L57.364,31.921L54.007,39.916L60.637,39.916Z" style="fill:rgb(123,24,20);fill-rule:nonzero;"/>
                </g>
                <path id="path30" d="M41.048,35.092L42.377,35.092C42.756,35.092 43.065,35.21 43.305,35.449C43.543,35.687 43.662,36.001 43.662,36.379L43.662,41.529C43.662,42.134 43.851,42.577 44.215,42.854C44.578,43.133 44.992,43.271 45.447,43.271C45.898,43.271 46.302,43.133 46.656,42.854C47.013,42.577 47.187,42.134 47.187,41.529L47.187,35.091L49.839,35.091L49.839,40.997C49.839,42.713 49.39,43.861 48.493,44.444C47.598,45.027 46.604,45.34 45.52,45.392C44.409,45.392 43.385,45.102 42.45,44.521C41.516,43.941 41.048,42.765 41.048,40.997L41.048,35.092Z" style="fill:rgb(30,36,56);fill-rule:nonzero;"/>
                <g id="g381" serif:id="g38">
                    <g id="g361" serif:id="g36">
                        <g id="g341" serif:id="g34">
                            <path id="path32" d="M23.088,45.394L20.84,45.394L17.752,38.206L20.741,38.206L21.954,41.147L25.998,31.072L28.927,31.072L23.088,45.394Z" style="fill:rgb(123,24,20);fill-rule:nonzero;"/>
                        </g>
                    </g>
                </g>
            </g>
        </g>
    </g>
</svg>
